<mxfile host="Electron" modified="2024-05-19T13:40:08.143Z" agent="Mozilla/5.0 (Windows NT 10.0; Win64; x64) AppleWebKit/537.36 (KHTML, like Gecko) draw.io/23.1.5 Chrome/120.0.6099.109 Electron/28.1.0 Safari/537.36" etag="F2a-GG4L0G-q0NuqEUh9" version="23.1.5" type="device">
  <diagram name="Страница — 1" id="wmkHsyDJHZAYo4y9csYJ">
    <mxGraphModel dx="1195" dy="737" grid="1" gridSize="10" guides="1" tooltips="1" connect="1" arrows="1" fold="1" page="1" pageScale="1" pageWidth="827" pageHeight="1169" math="0" shadow="0">
      <root>
        <mxCell id="0" />
        <mxCell id="1" parent="0" />
        <mxCell id="N02-op8hGAjYfZpUVgRI-12" value="" style="rounded=0;whiteSpace=wrap;html=1;" vertex="1" parent="1">
          <mxGeometry x="240" y="188" width="350" height="230" as="geometry" />
        </mxCell>
        <mxCell id="N02-op8hGAjYfZpUVgRI-18" style="edgeStyle=orthogonalEdgeStyle;rounded=0;orthogonalLoop=1;jettySize=auto;html=1;entryX=0;entryY=0.5;entryDx=0;entryDy=0;" edge="1" parent="1" source="N02-op8hGAjYfZpUVgRI-2" target="N02-op8hGAjYfZpUVgRI-10">
          <mxGeometry relative="1" as="geometry" />
        </mxCell>
        <mxCell id="N02-op8hGAjYfZpUVgRI-2" value="Автор" style="shape=umlActor;verticalLabelPosition=bottom;verticalAlign=top;html=1;outlineConnect=0;" vertex="1" parent="1">
          <mxGeometry x="130" y="273" width="30" height="60" as="geometry" />
        </mxCell>
        <mxCell id="N02-op8hGAjYfZpUVgRI-21" style="edgeStyle=orthogonalEdgeStyle;rounded=0;orthogonalLoop=1;jettySize=auto;html=1;" edge="1" parent="1" source="N02-op8hGAjYfZpUVgRI-3" target="N02-op8hGAjYfZpUVgRI-11">
          <mxGeometry relative="1" as="geometry" />
        </mxCell>
        <mxCell id="N02-op8hGAjYfZpUVgRI-3" value="Студент" style="shape=umlActor;verticalLabelPosition=bottom;verticalAlign=top;html=1;outlineConnect=0;" vertex="1" parent="1">
          <mxGeometry x="660" y="273" width="30" height="60" as="geometry" />
        </mxCell>
        <mxCell id="N02-op8hGAjYfZpUVgRI-19" style="edgeStyle=orthogonalEdgeStyle;rounded=0;orthogonalLoop=1;jettySize=auto;html=1;entryX=0;entryY=0.75;entryDx=0;entryDy=0;" edge="1" parent="1" source="N02-op8hGAjYfZpUVgRI-4" target="N02-op8hGAjYfZpUVgRI-10">
          <mxGeometry relative="1" as="geometry" />
        </mxCell>
        <mxCell id="N02-op8hGAjYfZpUVgRI-4" value="Автор" style="shape=umlActor;verticalLabelPosition=bottom;verticalAlign=top;html=1;outlineConnect=0;" vertex="1" parent="1">
          <mxGeometry x="130" y="370" width="30" height="60" as="geometry" />
        </mxCell>
        <mxCell id="N02-op8hGAjYfZpUVgRI-17" style="edgeStyle=orthogonalEdgeStyle;rounded=0;orthogonalLoop=1;jettySize=auto;html=1;entryX=0;entryY=0.25;entryDx=0;entryDy=0;" edge="1" parent="1" source="N02-op8hGAjYfZpUVgRI-5" target="N02-op8hGAjYfZpUVgRI-10">
          <mxGeometry relative="1" as="geometry" />
        </mxCell>
        <mxCell id="N02-op8hGAjYfZpUVgRI-5" value="Автор" style="shape=umlActor;verticalLabelPosition=bottom;verticalAlign=top;html=1;outlineConnect=0;" vertex="1" parent="1">
          <mxGeometry x="130" y="170" width="30" height="60" as="geometry" />
        </mxCell>
        <mxCell id="N02-op8hGAjYfZpUVgRI-22" style="edgeStyle=orthogonalEdgeStyle;rounded=0;orthogonalLoop=1;jettySize=auto;html=1;entryX=1;entryY=0.25;entryDx=0;entryDy=0;" edge="1" parent="1" source="N02-op8hGAjYfZpUVgRI-7" target="N02-op8hGAjYfZpUVgRI-11">
          <mxGeometry relative="1" as="geometry" />
        </mxCell>
        <mxCell id="N02-op8hGAjYfZpUVgRI-7" value="Студент&lt;div&gt;&lt;br/&gt;&lt;/div&gt;" style="shape=umlActor;verticalLabelPosition=bottom;verticalAlign=top;html=1;outlineConnect=0;" vertex="1" parent="1">
          <mxGeometry x="660" y="170" width="30" height="60" as="geometry" />
        </mxCell>
        <mxCell id="N02-op8hGAjYfZpUVgRI-20" style="edgeStyle=orthogonalEdgeStyle;rounded=0;orthogonalLoop=1;jettySize=auto;html=1;entryX=1;entryY=0.75;entryDx=0;entryDy=0;" edge="1" parent="1" source="N02-op8hGAjYfZpUVgRI-8" target="N02-op8hGAjYfZpUVgRI-11">
          <mxGeometry relative="1" as="geometry" />
        </mxCell>
        <mxCell id="N02-op8hGAjYfZpUVgRI-8" value="Студент" style="shape=umlActor;verticalLabelPosition=bottom;verticalAlign=top;html=1;outlineConnect=0;" vertex="1" parent="1">
          <mxGeometry x="660" y="370" width="30" height="60" as="geometry" />
        </mxCell>
        <mxCell id="N02-op8hGAjYfZpUVgRI-10" value="Модуль администратора" style="rounded=0;whiteSpace=wrap;html=1;" vertex="1" parent="1">
          <mxGeometry x="250" y="273" width="120" height="60" as="geometry" />
        </mxCell>
        <mxCell id="N02-op8hGAjYfZpUVgRI-11" value="Клиентский портал" style="rounded=0;whiteSpace=wrap;html=1;" vertex="1" parent="1">
          <mxGeometry x="460" y="273" width="120" height="60" as="geometry" />
        </mxCell>
        <mxCell id="N02-op8hGAjYfZpUVgRI-13" value="БД" style="shape=cylinder3;whiteSpace=wrap;html=1;boundedLbl=1;backgroundOutline=1;size=15;" vertex="1" parent="1">
          <mxGeometry x="392.5" y="273" width="45" height="65" as="geometry" />
        </mxCell>
        <mxCell id="N02-op8hGAjYfZpUVgRI-15" style="rounded=0;orthogonalLoop=1;jettySize=auto;html=1;entryX=0;entryY=0.5;entryDx=0;entryDy=0;entryPerimeter=0;startArrow=classic;startFill=1;" edge="1" parent="1" source="N02-op8hGAjYfZpUVgRI-10" target="N02-op8hGAjYfZpUVgRI-13">
          <mxGeometry relative="1" as="geometry" />
        </mxCell>
        <mxCell id="N02-op8hGAjYfZpUVgRI-16" style="rounded=0;orthogonalLoop=1;jettySize=auto;html=1;entryX=1;entryY=0.5;entryDx=0;entryDy=0;entryPerimeter=0;startArrow=classic;startFill=1;" edge="1" parent="1" source="N02-op8hGAjYfZpUVgRI-11" target="N02-op8hGAjYfZpUVgRI-13">
          <mxGeometry relative="1" as="geometry" />
        </mxCell>
        <mxCell id="N02-op8hGAjYfZpUVgRI-23" value="&#xa;&lt;span style=&quot;color: rgb(0, 0, 0); font-family: Helvetica; font-size: 12px; font-style: normal; font-variant-ligatures: normal; font-variant-caps: normal; font-weight: 400; letter-spacing: normal; orphans: 2; text-align: center; text-indent: 0px; text-transform: none; widows: 2; word-spacing: 0px; -webkit-text-stroke-width: 0px; background-color: rgb(251, 251, 251); text-decoration-thickness: initial; text-decoration-style: initial; text-decoration-color: initial; float: none; display: inline !important;&quot;&gt;Информационная система поддержки процессов дополнительного образования&lt;/span&gt;&#xa;&#xa;" style="text;html=1;align=center;verticalAlign=middle;whiteSpace=wrap;rounded=0;" vertex="1" parent="1">
          <mxGeometry x="239" y="200" width="350" height="30" as="geometry" />
        </mxCell>
      </root>
    </mxGraphModel>
  </diagram>
</mxfile>
